HIERARCHY
ROOT joint_Root
{
	OFFSET 0.0 0.0 0.0
	CHANNELS 6 Xposition Yposition Zposition Zrotation Xrotation Yrotation 
	JOINT Hips
	{
		OFFSET -17.1583 93.1646 452.98
		CHANNELS 6 Xposition Yposition Zposition Zrotation Xrotation Yrotation 
		JOINT Spine
		{
			OFFSET 15.7357 0.0 0.0
			CHANNELS 6 Xposition Yposition Zposition Zrotation Xrotation Yrotation 
			JOINT Chest
			{
				OFFSET 8.98455 -0.406207 0.0
				CHANNELS 6 Xposition Yposition Zposition Zrotation Xrotation Yrotation 
				JOINT Neck
				{
					OFFSET 16.3773 0.0 0.0
					CHANNELS 6 Xposition Yposition Zposition Zrotation Xrotation Yrotation 
					JOINT Head
					{
						OFFSET 6.45672 0.0 0.0
						CHANNELS 6 Xposition Yposition Zposition Zrotation Xrotation Yrotation 
						End Site
						{
							OFFSET 0.0 0.0 0.0
						}
					}
				}
				JOINT Shoulder_L
				{
					OFFSET 12.9942 -0.242716 4.98039
					CHANNELS 6 Xposition Yposition Zposition Zrotation Xrotation Yrotation 
					JOINT UpperArm_L
					{
						OFFSET 5.34809 0.0 0.0
						CHANNELS 6 Xposition Yposition Zposition Zrotation Xrotation Yrotation 
						JOINT LowerArm_L
						{
							OFFSET 24.3286 1.87007e-05 0.0
							CHANNELS 6 Xposition Yposition Zposition Zrotation Xrotation Yrotation 
							JOINT Hand_L
							{
								OFFSET 22.2916 0.0 0.0
								CHANNELS 6 Xposition Yposition Zposition Zrotation Xrotation Yrotation 
								End Site
								{
									OFFSET 0.0 0.0 0.0
								}
							}
						}
					}
				}
				JOINT Shoulder_R
				{
					OFFSET 12.9945 -0.242716 -4.98039
					CHANNELS 6 Xposition Yposition Zposition Zrotation Xrotation Yrotation 
					JOINT UpperArm_R
					{
						OFFSET -5.34813 0.0 0.0
						CHANNELS 6 Xposition Yposition Zposition Zrotation Xrotation Yrotation 
						JOINT LowerArm_R
						{
							OFFSET -24.3289 0.000322201 0.0
							CHANNELS 6 Xposition Yposition Zposition Zrotation Xrotation Yrotation 
							JOINT Hand_R
							{
								OFFSET -22.2915 -0.000108084 0.0
								CHANNELS 6 Xposition Yposition Zposition Zrotation Xrotation Yrotation 
								End Site
								{
									OFFSET 0.0 0.0 0.0
								}
							}
						}
					}
				}
			}
		}
		JOINT UpperLeg_L
		{
			OFFSET -2.19248 -6.46944 0.0
			CHANNELS 6 Xposition Yposition Zposition Zrotation Xrotation Yrotation 
			JOINT LowerLeg_L
			{
				OFFSET 39.0811 0.0 -1.23785e-05
				CHANNELS 6 Xposition Yposition Zposition Zrotation Xrotation Yrotation 
				JOINT Foot_L
				{
					OFFSET 40.9854 0.0 -1.26872e-05
					CHANNELS 6 Xposition Yposition Zposition Zrotation Xrotation Yrotation 
					JOINT Toes_L
					{
						OFFSET 11.7543 0.0 0.0
						CHANNELS 6 Xposition Yposition Zposition Zrotation Xrotation Yrotation 
						End Site
						{
							OFFSET 0.0 0.0 0.0
						}
					}
				}
			}
		}
		JOINT UpperLeg_R
		{
			OFFSET -2.19251 6.46944 0.0
			CHANNELS 6 Xposition Yposition Zposition Zrotation Xrotation Yrotation 
			JOINT LowerLeg_R
			{
				OFFSET -39.0811 -0.00228153 -0.0401928
				CHANNELS 6 Xposition Yposition Zposition Zrotation Xrotation Yrotation 
				JOINT Foot_R
				{
					OFFSET -40.9854 0.0 0.0
					CHANNELS 6 Xposition Yposition Zposition Zrotation Xrotation Yrotation 
					JOINT Toes_R
					{
						OFFSET -11.7543 0.0 0.0
						CHANNELS 6 Xposition Yposition Zposition Zrotation Xrotation Yrotation 
						End Site
						{
							OFFSET 0.0 0.0 0.0
						}
					}
				}
			}
		}
	}
}
MOTION
Frames:	6
Frame Time:	0.0333333
0.000000 0.000000 0.000000 0.000000 0.000000 -0.000000 3.550010 84.534200 30.632700 -83.941100 3.611180 172.579000 15.735700 0.000005 -0.000001 80.017400 85.447800 -76.446300 8.984550 -0.406207 -0.000000 1.266640 -1.779760 7.156340 16.377300 -0.000001 -0.000001 -5.249680 4.646060 -2.964810 6.456720 -0.000001 -0.000000 0.477809 6.132450 -4.196750 12.994200 -0.242716 4.980390 -92.973500 9.906870 -73.199900 5.348090 -0.000007 -0.000001 -69.045400 -13.141900 6.175860 24.328600 0.000019 0.000005 44.368100 23.255500 -68.015100 22.291600 -0.000001 0.000005 45.883500 4.248070 20.585200 12.994500 -0.242716 -4.980390 88.852200 4.068860 -74.231200 -5.348130 -0.000001 -0.000004 -62.693200 -3.655230 10.450100 -24.328900 0.000322 -0.000009 3.474380 8.697690 -21.884100 -22.291500 -0.000108 -0.000004 51.436900 5.248800 1.463200 -2.192480 -6.469440 -0.000000 -173.596000 -6.987950 -16.881900 39.081100 -0.000007 -0.000012 0.386538 -0.063327 80.694800 40.985400 -0.000006 -0.000013 -4.612130 -5.440050 -31.633700 11.754300 -0.000000 0.000003 0.002200 0.055294 -14.334000 -2.192510 6.469440 -0.000001 -169.862000 -0.476172 144.779000 -39.081100 -0.002282 -0.040193 0.050016 -0.032882 54.901300 -40.985400 0.000008 0.000006 -1.190330 -1.696930 -82.486700 -11.754300 -0.000006 -0.000006 -0.009263 0.265716 -5.779530
0.000000 0.000000 0.000000 0.000000 0.000000 -0.000000 3.810720 83.782900 22.372900 -83.354100 4.542500 172.651000 15.735700 0.000005 -0.000001 93.795900 85.290900 -90.198100 8.984550 -0.406207 -0.000000 1.628260 0.430780 7.182980 16.377300 -0.000001 -0.000001 -6.012590 4.580750 -2.175880 6.456720 -0.000001 -0.000000 0.477746 5.208620 -4.754670 12.994200 -0.242716 4.980390 -92.991900 9.444100 -72.331400 5.348090 -0.000007 -0.000001 -64.802300 -17.066400 12.103500 24.328600 0.000019 0.000005 40.686100 25.806200 -63.144300 22.291600 -0.000001 0.000005 47.075900 4.221370 20.991100 12.994500 -0.242716 -4.980390 88.845500 4.274980 -74.871600 -5.348130 -0.000001 -0.000004 -63.882400 -4.479820 5.094090 -24.328900 0.000322 -0.000009 6.045260 9.488250 -32.696300 -22.291500 -0.000108 -0.000004 51.725800 5.237560 1.759020 -2.192480 -6.469440 -0.000000 -173.230000 -7.053950 -27.035400 39.081100 -0.000007 -0.000012 0.307624 -0.006822 88.727900 40.985400 -0.000006 -0.000013 -2.728980 -4.313770 -36.389900 11.754300 -0.000000 0.000003 0.002173 0.053992 -14.386700 -2.192510 6.469440 -0.000001 -169.731000 -0.941654 150.752000 -39.081100 -0.002282 -0.040193 -0.003838 0.004706 56.308900 -40.985400 0.000008 0.000006 -2.289490 -0.807420 -88.190300 -11.754300 -0.000006 -0.000006 -0.005895 0.237544 -6.929750
0.000000 0.000000 0.000000 0.000000 0.000000 -0.000000 3.598130 84.884700 13.841100 -85.090900 4.393880 172.270000 15.735700 0.000005 -0.000001 105.236000 85.465500 -102.509000 8.984550 -0.406207 -0.000000 0.938203 2.220010 5.431420 16.377300 -0.000001 -0.000001 -6.101600 3.779210 -1.463610 6.456720 -0.000001 -0.000000 0.866752 3.834340 -3.965300 12.994200 -0.242716 4.980390 -92.896600 8.782540 -71.665100 5.348090 -0.000007 -0.000001 -58.484800 -20.476100 18.393100 24.328600 0.000019 0.000005 40.201200 27.960600 -60.978100 22.291600 -0.000001 0.000005 48.111200 4.170390 21.751800 12.994500 -0.242716 -4.980390 88.895200 4.164010 -75.126800 -5.348130 -0.000001 -0.000004 -64.864000 -4.531350 3.411600 -24.328900 0.000322 -0.000009 10.026400 9.150990 -48.015300 -22.291500 -0.000108 -0.000004 52.271300 5.213860 2.367640 -2.192480 -6.469440 -0.000000 -175.737000 -4.996350 -35.531900 39.081100 -0.000007 -0.000012 0.181392 -0.002172 89.311200 40.985400 -0.000006 -0.000013 -2.286980 -4.098820 -45.227400 11.754300 -0.000000 0.000003 0.002351 0.064173 -13.974000 -2.192510 6.469440 -0.000001 -172.533000 0.207584 159.197000 -39.081100 -0.002282 -0.040193 -0.002318 0.004502 51.010200 -40.985400 0.000008 0.000006 -3.521450 1.478500 -89.264800 -11.754300 -0.000006 -0.000006 -0.000989 0.182916 -9.153360
0.000000 0.000000 0.000000 0.000000 0.000000 -0.000000 3.070870 87.401600 5.004180 -88.146300 3.148080 171.159000 15.735700 0.000005 -0.000001 114.329000 85.761400 -113.013000 8.984550 -0.406207 -0.000000 -0.078270 3.401430 2.632550 16.377300 -0.000001 -0.000001 -6.265790 2.561160 -0.731931 6.456720 -0.000001 -0.000000 0.751375 2.011540 -2.800870 12.994200 -0.242716 4.980390 -92.557400 7.599470 -71.338100 5.348090 -0.000007 -0.000001 -52.164300 -24.310200 23.409700 24.328600 0.000019 0.000005 37.841900 27.833400 -58.992900 22.291600 -0.000001 0.000005 49.151700 4.079280 23.086100 12.994500 -0.242716 -4.980390 89.094300 3.422310 -75.167600 -5.348130 -0.000001 -0.000004 -65.679000 -3.103140 3.056650 -24.328900 0.000322 -0.000009 13.509100 7.576260 -61.236100 -22.291500 -0.000108 -0.000004 54.073500 5.192110 2.914570 -2.192480 -6.469440 -0.000000 -179.365000 -1.275120 -41.358700 39.081100 -0.000007 -0.000012 0.076312 -0.010150 82.418300 40.985400 -0.000006 -0.000013 -2.969270 -6.743490 -53.307400 11.754300 -0.000000 0.000003 0.002373 0.065835 -13.906600 -2.192510 6.469440 -0.000001 -176.728000 2.054970 168.025000 -39.081100 -0.002282 -0.040193 0.006312 -0.003425 41.567300 -40.985400 0.000008 0.000006 -5.007470 2.742360 -82.965200 -11.754300 -0.000006 -0.000006 0.002068 0.049344 -14.571600
0.000000 0.000000 0.000000 0.000000 0.000000 -0.000000 2.344340 90.488200 -3.894550 -91.734500 2.323630 168.910000 15.735700 0.000005 -0.000001 128.025000 86.265300 -128.394000 8.984550 -0.406207 -0.000000 -1.869120 4.631020 -0.660884 16.377300 -0.000001 -0.000001 -6.096740 1.226960 -0.250884 6.456720 -0.000001 -0.000000 0.841820 -0.032287 -1.486190 12.994200 -0.242716 4.980390 -91.997900 5.872600 -71.173100 5.348090 -0.000007 -0.000001 -46.741600 -26.991100 27.665300 24.328600 0.000019 0.000005 36.699000 27.361200 -58.341000 22.291600 -0.000001 0.000005 49.853800 4.028270 23.823800 12.994500 -0.242716 -4.980390 89.396100 2.303440 -75.305700 -5.348130 -0.000001 -0.000004 -66.961600 -3.349020 3.634130 -24.328900 0.000322 -0.000009 15.772200 5.898680 -70.008300 -22.291500 -0.000108 -0.000004 53.799600 5.207720 2.524000 -2.192480 -6.469440 -0.000000 177.095000 2.621270 -44.648900 39.081100 -0.000007 -0.000012 0.026483 -0.010016 69.271600 40.985400 -0.000006 -0.000013 -3.875800 -9.402000 -58.544800 11.754300 -0.000000 0.000003 0.002394 0.067568 -13.836300 -2.192510 6.469440 -0.000001 179.038000 2.961200 174.836000 -39.081100 -0.002282 -0.040193 0.017696 -0.023776 31.194900 -40.985400 0.000008 0.000006 -4.702540 0.804433 -69.675900 -11.754300 -0.000006 -0.000006 -0.021340 -0.174598 -23.709100
0.000000 0.000000 0.000000 0.000000 0.000000 -0.000000 1.946640 93.185900 -12.728300 -93.543700 1.510440 166.621000 15.735700 0.000005 -0.000001 144.475000 86.567400 -145.856000 8.984550 -0.406207 -0.000000 -3.715560 5.722260 -2.578770 16.377300 -0.000001 -0.000001 -5.874010 0.173105 -0.204026 6.456720 -0.000001 -0.000000 1.460080 -1.994750 -0.359375 12.994200 -0.242716 4.980390 -91.513400 4.392570 -70.967900 5.348090 -0.000007 -0.000001 -42.906600 -27.511600 30.714500 24.328600 0.000019 0.000005 37.913900 27.450300 -59.380300 22.291600 -0.000001 0.000005 49.790100 3.997160 24.267200 12.994500 -0.242716 -4.980390 89.606500 1.501360 -75.313600 -5.348130 -0.000001 -0.000004 -67.821800 -4.015470 3.882580 -24.328900 0.000322 -0.000009 14.439700 4.224010 -74.043100 -22.291500 -0.000108 -0.000004 53.678600 5.227360 2.023350 -2.192480 -6.469440 -0.000000 176.657000 5.867950 -44.895100 39.081100 -0.000007 -0.000012 0.018476 -0.014387 52.084700 40.985400 -0.000006 -0.000013 -3.854380 -7.264090 -61.677900 11.754300 -0.000000 0.000003 0.002432 0.071270 -13.686200 -2.192510 6.469440 -0.000001 177.616000 4.253410 179.243000 -39.081100 -0.002282 -0.040193 0.014961 -0.027387 23.034800 -40.985400 0.000008 0.000006 0.479107 -2.062280 -51.896000 -11.754300 -0.000006 -0.000006 -0.048665 -0.292968 -28.635500
